<svg width="271" height="155" viewBox="0 0 271 155" fill="none" xmlns="http://www.w3.org/2000/svg">
<rect width="271" height="155" fill="none"/>
<path d="M152.507 44.0019H146.112L142.666 35.5846H128.107L124.661 44.0058H118.262L135.387 6.36923L152.507 44.0019ZM135.387 0L107.954 9.56923L112.138 45.0654L135.389 57.675L158.647 45.0769L162.824 9.57308L135.387 0.00192317V0ZM130.374 30.3885H140.403L135.385 18.5942L130.374 30.3885Z" fill="#4EDE80"/>
<g clip-path="url(#clip0_0_1)">
<mask id="mask0_0_1" style="mask-type:luminance" maskUnits="userSpaceOnUse" x="0" y="92" width="63" height="62">
<path d="M62.0611 92.3929H0V153.931H62.0611V92.3929Z" fill="white"/>
</mask>
<g mask="url(#mask0_0_1)">
<path d="M28.9983 92.4095C28.8649 92.4215 28.44 92.4636 28.0578 92.4937C19.2432 93.2818 10.9866 97.9979 5.75717 105.247C2.84522 109.277 0.982786 113.849 0.279063 118.691C0.0303329 120.382 0 120.881 0 123.173C0 125.465 0.0303329 125.964 0.279063 127.654C1.96557 139.21 10.2586 148.919 21.506 152.516C23.5201 153.16 25.6434 153.599 28.0578 153.864C28.9983 153.966 33.0628 153.966 34.0033 153.864C38.1709 153.407 41.7017 152.384 45.1838 150.621C45.7178 150.351 45.8207 150.279 45.7481 150.218C45.6994 150.182 43.4246 147.157 40.6945 143.499L35.7322 136.852L29.5139 127.727C26.0923 122.71 23.2775 118.607 23.2532 118.607C23.2289 118.601 23.2047 122.656 23.1925 127.606C23.1743 136.274 23.1683 136.623 23.059 136.828C22.9013 137.123 22.78 137.243 22.5252 137.375C22.3311 137.472 22.1612 137.49 21.2452 137.49H20.1956L19.9166 137.315C19.7346 137.201 19.6011 137.05 19.5101 136.876L19.3827 136.605L19.3948 124.544L19.413 112.477L19.6011 112.243C19.6982 112.116 19.9044 111.954 20.05 111.876C20.2988 111.755 20.3958 111.743 21.4453 111.743C22.6829 111.743 22.8892 111.791 23.2107 112.14C23.3017 112.237 26.6687 117.266 30.697 123.323C34.725 129.381 40.2334 137.652 42.9393 141.712L47.8532 149.093L48.102 148.931C50.3041 147.511 52.6337 145.49 54.4777 143.385C58.4028 138.915 60.9326 133.465 61.7821 127.654C62.0308 125.964 62.0611 125.465 62.0611 123.173C62.0611 120.881 62.0308 120.382 61.7821 118.691C60.0955 107.135 51.8024 97.4264 40.5551 93.8292C38.5712 93.1915 36.4601 92.7524 34.0943 92.4877C33.5117 92.4276 29.5018 92.3614 28.9983 92.4095ZM41.7017 111.021C41.9928 111.166 42.2295 111.443 42.3143 111.731C42.3629 111.888 42.375 115.232 42.3629 122.77L42.3448 133.586L40.4217 130.662L38.4923 127.739V119.876C38.4923 114.793 38.5167 111.936 38.5531 111.797C38.6501 111.461 38.8624 111.196 39.1536 111.039C39.4023 110.913 39.4933 110.901 40.446 110.901C41.3438 110.901 41.5015 110.913 41.7017 111.021Z" fill="#4EDE80"/>
</g>
</g>
<g clip-path="url(#clip1_0_1)">
<path d="M218.779 123.008V147.624H270.496V98.3929H218.779V123.008ZM260.453 121.045C261.767 121.358 262.768 121.919 263.694 122.824C264.166 123.304 264.872 124.185 264.932 124.402C264.948 124.467 262.701 125.901 261.337 126.702C261.287 126.734 261.085 126.534 260.865 126.221C260.201 125.299 259.501 124.899 258.433 124.827C256.867 124.73 255.857 125.508 255.865 126.814C255.857 127.134 255.933 127.456 256.083 127.736C256.429 128.418 257.077 128.825 259.08 129.651C262.784 131.165 264.366 132.167 265.35 133.585C266.453 135.171 266.697 137.704 265.956 139.594C265.132 141.638 263.094 143.031 260.232 143.488C259.348 143.641 257.244 143.616 256.292 143.448C254.213 143.096 252.243 142.118 251.031 140.836C250.551 140.339 249.625 139.033 249.685 138.945C249.711 138.913 249.921 138.785 250.157 138.656C250.393 138.527 251.259 138.047 252.077 137.598L253.567 136.773L253.879 137.213C254.317 137.845 255.267 138.711 255.841 138.999C257.491 139.833 259.755 139.713 260.875 138.759C261.329 138.399 261.583 137.845 261.549 137.285C261.549 136.716 261.473 136.461 261.161 136.034C260.757 135.49 259.941 135.025 257.609 134.064C254.941 132.965 253.787 132.293 252.744 131.211C252.088 130.498 251.6 129.658 251.322 128.751C251.128 128.054 251.078 126.307 251.23 125.61C251.778 123.15 253.73 121.444 256.532 120.939C257.442 120.771 259.563 120.834 260.455 121.044L260.453 121.045ZM248.316 123.105L248.332 125.116H241.597V143.33H236.833V125.116H230.108V123.145C230.108 122.047 230.134 121.134 230.166 121.11C230.192 121.078 234.283 121.062 239.249 121.07L248.29 121.094L248.316 123.105Z" fill="#4EDE80"/>
</g>
<defs>
<clipPath id="clip0_0_1">
<rect width="62.0611" height="61.5385" fill="white" transform="translate(0 92.675)"/>
</clipPath>
<clipPath id="clip1_0_1">
<rect width="51.7176" height="49.2308" fill="white" transform="translate(219.061 98.8289)"/>
</clipPath>
</defs>
</svg>
